<svg xmlns="http://www.w3.org/2000/svg" viewBox="0 0 1920 1080" preserveAspectRatio="xMidYMid slice">
  <defs>
    <!-- Gradientes -->
    <linearGradient id="bgGradient" x1="0%" y1="0%" x2="100%" y2="100%">
      <stop offset="0%" style="stop-color:#f8faf8;stop-opacity:1" />
      <stop offset="50%" style="stop-color:#ffffff;stop-opacity:1" />
      <stop offset="100%" style="stop-color:#f0f8f0;stop-opacity:1" />
    </linearGradient>
    
    <linearGradient id="truckGradient" x1="0%" y1="0%" x2="100%" y2="100%">
      <stop offset="0%" style="stop-color:#4caf50;stop-opacity:0.6" />
      <stop offset="100%" style="stop-color:#2e5d3a;stop-opacity:0.6" />
    </linearGradient>
    
    <linearGradient id="warehouseGradient" x1="0%" y1="0%" x2="100%" y2="100%">
      <stop offset="0%" style="stop-color:#b6e2c1;stop-opacity:0.5" />
      <stop offset="100%" style="stop-color:#4caf50;stop-opacity:0.5" />
    </linearGradient>
    
    <linearGradient id="routeGradient" x1="0%" y1="0%" x2="100%" y2="100%">
      <stop offset="0%" style="stop-color:#2e5d3a;stop-opacity:0.4" />
      <stop offset="100%" style="stop-color:#b6e2c1;stop-opacity:0.4" />
    </linearGradient>
  </defs>
  
  <!-- Fondo principal -->
  <rect width="1920" height="1080" fill="url(#bgGradient)"/>
  
  <!-- Patrón de puntos de conexión -->
  <g opacity="0.4">
    <!-- Puntos de red -->
    <circle cx="200" cy="200" r="3" fill="#4caf50" opacity="0.6"/>
    <circle cx="400" cy="150" r="3" fill="#2e5d3a" opacity="0.6"/>
    <circle cx="600" cy="300" r="3" fill="#b6e2c1" opacity="0.6"/>
    <circle cx="800" cy="180" r="3" fill="#4caf50" opacity="0.6"/>
    <circle cx="1000" cy="250" r="3" fill="#2e5d3a" opacity="0.6"/>
    <circle cx="1200" cy="120" r="3" fill="#b6e2c1" opacity="0.6"/>
    <circle cx="1400" cy="280" r="3" fill="#4caf50" opacity="0.6"/>
    <circle cx="1600" cy="200" r="3" fill="#2e5d3a" opacity="0.6"/>
    <circle cx="1800" cy="150" r="3" fill="#b6e2c1" opacity="0.6"/>
    
    <!-- Puntos inferiores -->
    <circle cx="150" cy="800" r="3" fill="#4caf50" opacity="0.6"/>
    <circle cx="350" cy="850" r="3" fill="#2e5d3a" opacity="0.6"/>
    <circle cx="550" cy="700" r="3" fill="#b6e2c1" opacity="0.6"/>
    <circle cx="750" cy="820" r="3" fill="#4caf50" opacity="0.6"/>
    <circle cx="950" cy="750" r="3" fill="#2e5d3a" opacity="0.6"/>
    <circle cx="1150" cy="880" r="3" fill="#b6e2c1" opacity="0.6"/>
    <circle cx="1350" cy="720" r="3" fill="#4caf50" opacity="0.6"/>
    <circle cx="1550" cy="800" r="3" fill="#2e5d3a" opacity="0.6"/>
    <circle cx="1750" cy="850" r="3" fill="#b6e2c1" opacity="0.6"/>
    
    <!-- Conexiones sutiles -->
    <line x1="200" y1="200" x2="400" y2="150" stroke="#4caf50" stroke-width="1" opacity="0.2"/>
    <line x1="400" y1="150" x2="600" y2="300" stroke="#2e5d3a" stroke-width="1" opacity="0.2"/>
    <line x1="600" y1="300" x2="800" y2="180" stroke="#b6e2c1" stroke-width="1" opacity="0.2"/>
    <line x1="800" y1="180" x2="1000" y2="250" stroke="#4caf50" stroke-width="1" opacity="0.2"/>
    <line x1="1000" y1="250" x2="1200" y2="120" stroke="#2e5d3a" stroke-width="1" opacity="0.2"/>
    <line x1="1200" y1="120" x2="1400" y2="280" stroke="#b6e2c1" stroke-width="1" opacity="0.2"/>
    <line x1="1400" y1="280" x2="1600" y2="200" stroke="#4caf50" stroke-width="1" opacity="0.2"/>
    <line x1="1600" y1="200" x2="1800" y2="150" stroke="#2e5d3a" stroke-width="1" opacity="0.2"/>
  </g>
  
  <!-- Elementos de logística estilizados -->
  <g opacity="0.9">
    <!-- Almacén (reubicado en esquina inferior izquierda) -->
    <g transform="translate(100, 800) scale(1.2)">
      <rect x="0" y="40" width="120" height="60" fill="url(#warehouseGradient)" stroke="#2e5d3a" stroke-width="1.5"/>
      <polygon points="0,40 60,10 120,40" fill="url(#warehouseGradient)" stroke="#2e5d3a" stroke-width="1.5"/>
      <rect x="20" y="60" width="20" height="40" fill="#4caf50" opacity="0.7"/>
      <rect x="50" y="60" width="20" height="40" fill="#4caf50" opacity="0.7"/>
      <rect x="80" y="60" width="20" height="40" fill="#4caf50" opacity="0.7"/>
    </g>
    
    <!-- Contenedor (reubicado en esquina superior izquierda) -->
    <g transform="translate(50, 50) scale(1.2)">
      <rect x="0" y="0" width="100" height="60" fill="url(#truckGradient)" stroke="#2e5d3a" stroke-width="1.5"/>
      <rect x="5" y="5" width="90" height="50" fill="none" stroke="#4caf50" stroke-width="1.5" opacity="0.8"/>
      <line x1="0" y1="20" x2="100" y2="20" stroke="#4caf50" stroke-width="1" opacity="0.6"/>
      <line x1="0" y1="40" x2="100" y2="40" stroke="#4caf50" stroke-width="1" opacity="0.6"/>
    </g>
    
    <!-- Gráfico de barras (reubicado en esquina superior derecha) -->
    <g transform="translate(1750, 50) scale(1.2)">
      <rect x="0" y="40" width="15" height="20" fill="#4caf50" opacity="0.8"/>
      <rect x="20" y="30" width="15" height="30" fill="#2e5d3a" opacity="0.8"/>
      <rect x="40" y="20" width="15" height="40" fill="#b6e2c1" opacity="0.8"/>
      <rect x="60" y="35" width="15" height="25" fill="#4caf50" opacity="0.8"/>
      <rect x="80" y="15" width="15" height="45" fill="#2e5d3a" opacity="0.8"/>
      <line x1="0" y1="60" x2="95" y2="60" stroke="#222" stroke-width="1" opacity="0.5"/>
    </g>
  </g>
  
  <!-- Rutas de conexión -->
  <g opacity="0.3">
    <path d="M 200 200 Q 400 100 600 300 T 1000 250 T 1400 280" stroke="url(#routeGradient)" stroke-width="4" fill="none"/>
    <path d="M 150 800 Q 350 900 550 700 T 950 750 T 1350 720" stroke="url(#routeGradient)" stroke-width="4" fill="none"/>
    <path d="M 1200 120 Q 1400 200 1600 200 T 1800 150" stroke="url(#routeGradient)" stroke-width="3" fill="none"/>
  </g>
  
  <!-- Elementos flotantes sutiles -->
  <g opacity="0.25">
    <circle cx="500" cy="300" r="50" fill="none" stroke="#b6e2c1" stroke-width="1.5"/>
    <circle cx="1200" cy="600" r="40" fill="none" stroke="#4caf50" stroke-width="1.5"/>
    <circle cx="800" cy="800" r="60" fill="none" stroke="#2e5d3a" stroke-width="1.5"/>
  </g>
</svg> 